<?xml version="1.0" encoding="UTF-8"?><svg id="Layer_1" xmlns="http://www.w3.org/2000/svg" viewBox="0 0 253.29 114.7"><path d="M37.05,3.66c-1.9,1.77-3.65,3.91-4.75,6.28s-1.84,4.8-2.63,7.25c-.67,2.07-1.27,4.17-2.02,6.21-.11.3-.22.59-.34.88-.09.23-.19.47-.28.7-.43,1.08.63-1.41.1-.22-.68,1.52-1.39,3.03-2.2,4.48-1.49,2.66-2.75,5.26-3.68,8.18-.47,1.48-1.07,2.91-1.45,4.42-.47,1.84-.58,3.73-1.16,5.54-1.1,3.47-2.18,6.94-3.24,10.42-.5,1.64-.57,3.37-.97,5.03-.42,1.76-1.04,3.45-1.61,5.16-.45,1.37-.62,2.74-.78,4.18l-.05.44c-.08.68-.06.59.05-.28.09.25-.28,1.51-.47,1.7l.27-.62c-.12.27-.24.54-.37.8-.25.54-.51,1.06-.76,1.6-.52,1.13-1.03,2.27-1.42,3.45-.45,1.35-.6,2.76-1.09,4.1-.25.67-.65.72.14-.3-.27.35-.42.87-.64,1.26-.19.34-.4.68-.61,1.01-.16.25-1.33,1.75-.38.58-1.03,1.28-1.76,2.53-1.76,4.24,0,1.47.65,3.23,1.76,4.24,2.18,2.01,6.38,2.61,8.49,0,2.33-2.89,4.37-6.09,5.14-9.79.11-.52.2-1.03.35-1.54.1-.35.23-.68.33-1.02.42-1.4-.58,1.15.07-.17.99-2.02,2.11-4.12,2.53-6.34.15-.82.24-1.65.33-2.47l.05-.44c.08-.68.06-.59-.05.28-.18-.64.53-1.94.74-2.55.58-1.7,1.15-3.42,1.51-5.18s.47-3.38,1.07-5.02c.64-1.72,1.07-3.46,1.53-5.23s1.19-3.44,1.66-5.21.59-3.65,1.11-5.44c.45-1.51,1.02-2.99,1.51-4.49.13-.42.29-.83.42-1.25.44-1.39-.5.97.04-.1.26-.51.51-1.02.8-1.51,2.37-4.05,4.28-8.33,5.72-12.8.92-2.88,1.76-5.8,2.84-8.62.55-1.43-.73,1.46-.1.25.14-.27.28-.54.43-.81.12-.21.25-.42.39-.62.16-.25.33-.5.51-.74-.51.65-.57.73-.17.24.52-.57,1.03-1.14,1.59-1.66,2.3-2.15,2.33-6.35,0-8.49-2.46-2.26-6.03-2.29-8.49,0h0Z"/><path d="M24.99,26.92c.87-1.62,1.82-3.19,2.86-4.71.48-.69.97-1.37,1.46-2.06.46-.65-.74.89-.22.28.13-.15.25-.31.38-.47.36-.43.73-.85,1.12-1.26.68-.71,1.41-1.38,2.17-2.01.17-.14.9-.73.19-.17-.65.52-.14.11,0,.01.36-.25.71-.5,1.07-.74,1.36-.9,2.75-1.74,4.2-2.46.99-.49-.96.3.15-.06.46-.15.91-.32,1.38-.45.79-.23,1.62-.29,2.4-.51.06-.02-1.41.16-.73.1.18-.02.37-.04.55-.06.49-.05.97-.1,1.46-.15.9-.09,1.81-.18,2.72-.21.35,0,.71-.01,1.06,0,.14,0,.29.03.43.03.73.01-1.45-.27-.73-.1.47.11.95.2,1.41.34.31.1.7.32,1.02.36-.01,0-1.16-.56-.6-.24.23.13.48.24.71.37.38.21.73.47,1.11.69.75.43-1.07-.94-.28-.23.38.34.76.67,1.11,1.04.15.16.96,1.17.37.37-.54-.73-.14-.19-.04-.04.18.27.37.54.54.81.21.34.69.91.71,1.3,0-.03-.35-.98-.14-.32.07.22.16.44.23.66.16.5.23,1.01.38,1.51.19.64-.06-.5-.05-.55-.03.3.07.69.08,1.01.04.81.02,1.62-.05,2.43-.03.39-.1.78-.12,1.17-.05.67.13-.93.11-.82-.05.3-.08.6-.13.89-.12.84-.25,1.67-.43,2.5-.09.42-.2.84-.33,1.26-.05.15-.17.37-.18.52.02-.43.56-1.17.09-.27-.12.22-.81,1.17-.23.48.63-.75-.34.29-.5.47-.57.66,1.27-.79.24-.18-.28.16-.56.31-.83.47-.74.43,1.41-.47.22-.1-.36.11-.72.24-1.09.35-.89.26-1.78.49-2.68.72-.98.24-2.14.62-3.16.62-.01,0,1.24-.13.55-.08-.2.01-.4.04-.61.06-.5.05-1.01.08-1.52.11-1.4.08-2.8.12-4.2.06-3.36-.15-6.98.47-10.07,1.77-4.56,1.92-8.03,5.81-8.83,10.79l11.79,1.6c-.01-.23.06-.6,0-.82-.15.89-.15,1.11-.02.66.1-.3.07-.25-.08.15-.3.79.07-.02.18-.19.18-.29.37-.58.54-.87.49-.83.83-1.68.97-2.63s.28-1.84.15-2.82c0-.54-.14-1.05-.41-1.51-.44-1.05-.4-.96.11.3l-1.54,5.84.06-.06-2.65,1.54-1.36.16c.37.02.23,0-.4-.07-1.26-.17-.28-.01-.02.05.45.11.89.23,1.33.35,1,.27,2,.56,3.03.74,1.66.29,3.24.42,4.91.34,4.16-.21,8.36-.55,12.53-.41.04,0,.84.06.84.05-.05.13-2.15-.39-.77-.06.59.14,1.15.35,1.72.54.75.25-.19.21-.42-.18.11.19.81.39.99.49.44.23.86.49,1.28.76.26.17.82.86.3.18-.56-.73.08.07.26.23.37.33.73.67,1.07,1.03.21.23.41.47.62.69.49.53-.71-1.08-.15-.18.33.53.63,1.05.94,1.58.52.9-.37-1.14.02.06.31.93.46,1.9.6,2.87.05.33.14,1.12-.05-.4.04.31.08.62.12.93.1.75.2,1.5.27,2.25.13,1.34.12,2.63.07,3.97-.03.83.25-1.16.04-.35-.09.35-.14.71-.24,1.06-.08.3-.25,1.47-.52,1.59.35-.16.52-1.14.04-.19-.14.28-.29.55-.45.81-.3.51-.65,1-.99,1.48-.57.8.25-.32.31-.39-.15.17-.28.35-.42.53-.24.29-.47.59-.72.87-.5.59-1.03,1.15-1.58,1.69-.62.61-1.46,1.63-2.26,1.98,1.17-.52.47-.37.05-.07-.3.21-.61.42-.91.62-.66.43-1.35.83-2.05,1.21-.27.15-.55.29-.83.42-.06.03-1.4.69-.5.25.75-.37-.08.03-.28.11-.32.12-.65.24-.97.35-1.13.39-2.29.7-3.45.95-.89.19-1.79.35-2.69.5-.31.05-1.36.2.13,0,1.34-.18.75-.08.47-.07-.23.01-.45.04-.68.05-1.36.08-2.72.06-4.08.05-2.3-.02-4.6-.07-6.91-.11-1.36-.03-2.71-.04-4.07-.09-.5-.02-1-.04-1.49-.08-.29-.02-.57-.06-.86-.08-.65-.06,1.6.29.27.01-1.12-.23-2.2-.57-3.28-.95-.21-.07-.41-.15-.62-.22-1.17-.4,1.28.64.1.04-.62-.31-1.2-.67-1.8-1.01-1.15-.65.29.31.03.06-.13-.12-.28-.23-.42-.35-.35-.31-.69-.63-1.02-.97-.14-.15-.28-.3-.42-.46l-.21-.25c-.39-.48-.29-.35.29.38.06-.14-.9-1.45-1.03-1.7-.52-.95-.03.07.05.17-.23-.31-.31-.9-.41-1.29-.09-.35-.14-.7-.22-1.05-.08-.46-.05-.28.08.56-.02-.2-.03-.41-.04-.61-.07-1.38.04-2.77.17-4.15.02-.18.04-.36.05-.55.1-1.14-.26,1.59-.05.38.1-.58.2-1.16.33-1.74.35-1.54.85-3.04,1.45-4.5.55-1.34.09-3.43-.6-4.62s-2.16-2.43-3.59-2.76c-1.54-.35-3.26-.27-4.62.6s-2.13,2.06-2.76,3.59c-1.2,2.92-1.82,5.92-2.16,9.05s-.39,6.35.5,9.4c1.93,6.57,7.15,11.17,13.43,13.44,5.46,1.98,11.32,1.72,17.04,1.81,3.75.06,7.33.08,11.04-.57,6.42-1.12,12.31-3.94,17.2-8.24,3.87-3.4,7.46-8.06,8.62-13.14.79-3.44.57-6.72.11-10.17-.43-3.26-.78-6.07-2.27-9.04-2.68-5.33-8.51-9.65-14.35-10.79-2.35-.46-4.77-.31-7.15-.24-2.81.08-5.61.25-8.41.37-.75.03-1.48,0-2.22-.03-.92-.05,1.76.31.84.11-.2-.04-.41-.07-.62-.12-.69-.15-1.37-.33-2.05-.52-1.51-.41-3.03-.84-4.61-.84-4.6,0-8.06,5.61-5.15,9.55l-.82-3.03c0-.51.15-.98.41-1.41-.15.23-.29.46-.44.7-.36.59-.63,1.17-.9,1.81-.62,1.48-.98,3-.91,4.62.14,3,2.18,5.49,5.2,5.89,2.68.36,6.11-1.35,6.58-4.3.09-.56.23-1.08.36-1.63.25-1.01-.67,1.14-.03.04.15-.26.32-.52.47-.79.22-.39.66-.41-.47.6.17-.15.31-.35.47-.51.04-.04.47-.36.5-.46-.04.12-1.23.81-.42.34.33-.19.66-.39.99-.58,1.11-.62-1.05.32-.1.03.4-.12.8-.26,1.21-.37s.79-.19,1.19-.26c.27-.05,1.55-.23.33-.07s-.04.02.25,0c.3-.03.61-.05.92-.07,1.12-.08,2.23.02,3.35,0,4.45-.06,8.86-.69,13.13-1.95,4.92-1.46,8.46-4.44,10.36-9.26.69-1.76.94-3.64,1.2-5.51.3-2.18.65-4.37.45-6.57-.44-5.04-2.49-9.91-6.29-13.35-3.15-2.84-6.9-4.48-11.07-4.98-1.77-.21-3.54,0-5.3.18-2.13.21-4.31.41-6.38,1.03-4.77,1.41-9.31,4.32-12.98,7.65s-6.49,7.64-8.8,11.93c-1.49,2.76-.78,6.66,2.15,8.21s6.62.8,8.21-2.15h0Z"/><path d="M96.58,36.9c-2.22.67-4.44,1.33-6.67,2-1.11.33-2.25.61-3.33,1-1.35.48-2.56,1.25-3.85,1.88-.35.17-.71.34-1.06.5-.13.06-.27.11-.39.17-.49.24.65-.27.59-.25-.95.28-1.95.74-2.82,1.2-1.65.89-2.96,2.24-4.19,3.61-2.05,2.28-4.26,4.38-6.2,6.77-.99,1.21-2.01,2.44-2.66,3.87-.31.69-.64,1.41-.88,2.14-.19.58.33-.73.3-.69-.09.12-.23.44-.28.56-.1.24-.48.55.14-.15l.29-.4,4.57-1.26c.4.37-1.35-.26-1.83-.24-1.07.05-2.07.33-3.03.82-2.43,1.24-3.62,4.36-2.91,6.94.28,1,.92,2.14,1.67,2.85.07.06.17.17.21.24l-.6-.81-.54-2.24c-.11-1.19,1.14-3.52.33-2.07-.4.72-.72,1.54-.98,2.32-.46,1.37-.64,2.87-.61,4.31,0,.46-.2,1.86.11.37-.17.81-.27,1.67-.33,2.49-.12,1.62.3,3.29,1.04,4.72,1.12,2.19,3.18,3.65,5.37,4.63,2.86,1.27,5.67,2.62,8.88,1.87,1.23-.29,2.29-.88,3.29-1.63,1.1-.82,2.24-1.5,3.26-2.45,3.07-2.89,6.16-5.69,8.22-9.46.51-.93-.12.28-.24.28.11,0,.48-.46.56-.54.64-.65,1.21-1.4,1.72-2.16.64-.94,1.26-1.97,1.74-3.01.62-1.35,1.11-2.71,1.51-4.14.15-.53.28-1.06.44-1.58.12-.41.76-2,.08-.47,1.09-2.47,1.88-4.96,2.75-7.5.07-.2.4-1.08.08-.27-.31.77,0,.03.09-.14.19-.38.4-.76.61-1.13.31-.52.66-1.01,1-1.52.37-.57-.27.36-.3.39.23-.16.51-.6.7-.81l-10.03-5.84c-.73,3.23-2.36,6.26-2.9,9.51-.71,4.26-1.07,8.56-1.09,12.88,0,.91-.04,1.83.04,2.73.15,1.67.64,2.96,1.32,4.48s1.43,2.84,2.36,4.13c1.62,2.26,3.55,3.87,6.3,4.51,3.1.72,5.77-.21,8.15-2.2s2.24-6.43,0-8.49c-2.57-2.36-5.9-2.15-8.49,0,.96-.7,1.23-.91.8-.63-.38.23-.12.13.78-.29.25-.06,1.91.09,1.94.04-.18-.05-.37-.1-.55-.15-.51-.14-.29-.03.66.33-.87-.46.86.74.35.25s.75,1.16.21.3c-.15-.23-.3-.46-.45-.7-.35-.55-.7-1.11-1.01-1.68-.13-.24-.25-.49-.37-.73-.16-.34-.57-1.59-.04-.04-.36-1.05-.06,1.04-.01.31.02-.35,0-.72,0-1.07,0-1.6-.01-3.2.07-4.79s.24-3.14.43-4.7c.05-.38.1-.76.14-1.15.18-1.5-.27,1.34.02-.15.14-.73.29-1.43.52-2.13.83-2.46,1.8-4.84,2.38-7.38s-.35-5.5-2.76-6.78c-2.27-1.2-5.45-1.09-7.27.94-1.52,1.69-2.92,3.56-3.93,5.6-1.14,2.29-1.74,4.72-2.61,7.1-.1.28-.79,2.16-.26.71-.29.8-.69,1.56-.98,2.37-.37,1.03-.62,2.09-.92,3.14-.13.46-.29.91-.44,1.36-.25.77-.24-.12.13-.32-.09.05-.23.43-.29.53-.26.45-.53.9-.8,1.34-.02.03-.37.73-.48.77.37-.14.72-.83.02-.14-.92.9-1.69,1.93-2.33,3.04-.24.41-.49.81-.76,1.2-.13.19-.32.54-.51.7.52-.47.47-.59-.02-.01-1.33,1.56-2.85,2.9-4.37,4.26-.18.16-.39.33-.54.52-.36.46.42-.32.51-.33-.42.08-1.03.66-1.37.91-.16.12-.38.25-.51.39-.44.49.74-.2,1.05-.23.38-.04.96-.1,1.32.09-.2-.1-.63-.18-.87-.24-.74-.19,1.13.49.34.15-.2-.09-.41-.17-.61-.26-.54-.23-1.09-.47-1.61-.73-.22-.11-1.54-.88-.6-.28,1,.64-.32-.53.44.44.3.43.38.51.22.25-.22-.41-.11-.16.33.76,0,.02.02,1.39.12.82.13-.78,0-.32-.07.19.13-.98.32-1.95.33-2.94,0-.26.01-.57-.02-.83-.13-1.09-.29.82-.09.14.06-.2.11-.43.15-.64.18-.52.17-.54-.02-.07-.18.38-.21.45-.08.21,1-1.01,1.36-2.92,1.28-4.27-.07-1.24-.41-2.46-1.06-3.53-.3-.5-.74-.98-1.1-1.43-.44-.55-.35-.94.43.58l.82,3.03v-.1c-.98,1.73-1.97,3.45-2.96,5.18l.14-.07-3.03.82c-1.59-.22-1.41-.2.53.06.65.02,1.29-.06,1.92-.21.66-.17,1.3-.42,1.88-.77,1.26-.76,2.33-1.94,3-3.25.38-.75.68-1.54.98-2.32.07-.19.15-.39.22-.58l-.42.97c-.02-.38.58-1.06.79-1.36.83-1.2-.8.93-.09.1.21-.25.42-.51.64-.76.63-.73,1.27-1.45,1.91-2.16.81-.91,1.69-1.74,2.53-2.62.64-.67,1.25-1.38,1.88-2.06.24-.26.5-.51.75-.77.7-.74-1.34.8-.18.14.22-.12.52-.24.71-.4-1.13.47-1.41.59-.85.36.13-.05.25-.1.38-.15,1.09-.44,2.18-.89,3.24-1.39.81-.38,1.69-.75,2.44-1.24.38-.2.26-.16-.36.13.32-.1.63-.19.95-.29.56-.17,1.11-.33,1.67-.5,2.3-.69,4.6-1.38,6.9-2.07,3-.9,5.2-4.25,4.19-7.38s-4.16-5.16-7.38-4.19h0Z"/><path d="M126.29,5.14c-2.26,1.99-4.28,4.51-5.53,7.26-.59,1.29-1.05,2.6-1.46,3.95-.34,1.12.72-1.35.03-.11-.15.26-.28.53-.43.79-.3.55-.61,1.09-.91,1.64-1.38,2.58-2.9,5.06-3.86,7.84-.14.4-.27.79-.39,1.19l-.11.41c-.21.65-.15.55.17-.31-.08-.04-1.32,3-1.29,2.9-.54,1.55-.96,3.2-1.36,4.79-.37,1.49-.78,2.98-1.13,4.47-.27,1.14-.37,2.41-.36,3.59.01.91.24-1.45,0-.03-.1.58-.15,1.16-.27,1.73-.15.7-.42,1.36-.59,2.06-.29,1.17-.41,2.4-.51,3.6-.02.23-.03,2.5-.1,2.52,0,0,.31-1.51-.01-.36-.12.42-.23.83-.31,1.26,0,0-.19,3.43-.18,1.19,0,.65-.23,1.32-.27,1.97-.03.38-.02.76,0,1.14.07,1.54.25-1.26,0,.21-.35,2.03-.27,3.99-.25,6.03.01,1.56-.08,3.14-.04,4.7.08,3.02,1.3,5.28,3.12,7.59,1.11,1.41,2.26,2.99,3.86,3.88,2.91,1.63,6.14.86,8.82-.81.25-.16.5-.32.75-.49.51-.38,1.02-.77,1.51-1.18-1.81.88-2.23,1.17-1.25.86,1.38-.38,3.1-1.12,3.99-2.28.97-1.26-2.66,1.14-1.21.7.65-.2,1.33-.52,1.94-.82,1.05-.51,2.01-1.27,2.79-2.13,2.11-2.33,2.47-6.22,0-8.49-2.3-2.11-6.23-2.48-8.49,0-.93,1.02,1.1-.47.11.01-.14.07-.34.16-.47.24,1.11-.76,1.12-.47.46-.24s-1.3.45-1.88.8c.69-.42-1.29.88-1.49,1.17-.86,1.25,2.6-.96,1.06-.54-1.46.39-2.57,1.1-3.75,2-1.05.8,1.09-.64.02-.07-.21.11-.43.26-.63.39-.89.58.56-.11.89-.15,1.24-.16,4.47,2.45,3.46,1.08-.33-.44-.71-.85-1.07-1.26-.22-.26-.49-.53-.68-.82.84,1.33.12.06-.03-.17-.61-.91.04.46.14.74.3.85.03-.09.03-.41.01-.7.04-1.4.04-2.09,0-1.47-.03-2.94-.05-4.41,0-.34.09-2.78-.05-1.07.09-1.11.45-2.22.35-3.34-.03-.42.13-1.05-.15.46.13-.7.44-1.51.31-2.19-.13-.72-.33,1.34.03.24.11-.33.21-.67.29-1,.42-1.81.02-3.75.47-5.53-.05.2-.32,1.23.01.27.12-.34.21-.69.31-1.03.24-.77.36-1.54.48-2.33.17-1.12.39-2.24.48-3.37.02-.3.04-.6.05-.89.02-1.47-.35.83-.05.07.56-1.44.74-3,1.14-4.49.35-1.32.71-2.66,1.11-3.96l.06-.21c.22-.63.18-.55-.14.24.11-.1.28-.53.36-.69.55-1.12.9-2.2,1.27-3.37.07-.23.71-1.92.67-1.94.15.08-.81,1.35-.1.39.21-.28.38-.6.56-.9.53-.87.98-1.78,1.45-2.68,1.28-2.43,2.6-4.76,3.35-7.43.3-1.06-.56,1.1-.17.34.14-.26.25-.53.4-.79.21-.38.43-.76.67-1.12.18-.28.4-.74.66-.95l-.39.51c.19-.24.39-.47.6-.7.51-.57,1.06-1.1,1.64-1.6,2.36-2.08,2.28-6.39,0-8.49-2.52-2.31-5.96-2.22-8.49,0h0Z"/><path d="M213.36,49.65c-3.21-5.36-8.97-8.93-15.35-8.25-3.48.37-6.49,1.25-9.7,2.61-2.84,1.2-5.28,2.43-7.7,4.37-5.28,4.22-6.55,11.39-4.64,17.62,1.04,3.4,2.31,6.51,4.61,9.26,1.63,1.95,3.77,3.52,5.97,4.78.69.39,1.38.81,2.08,1.16s1.44.64,2.17.94c.2.08.92.24,1.02.39l-.66-.28c.25.11.49.24.74.37.32.17,1.57.75,1.71,1.1-.16-.41-.83-.68-.24-.19s1.21,1.02,1.85,1.47c.47.33.95.6,1.47.85.28.13.57.26.85.41.19.1.37.21.55.32.39.26.24.13-.44-.38.18.33.82.76,1.1,1.04.42.43.86.85,1.3,1.26.75.69,1.53,1.35,2.33,1.97.61.48,1.22.95,1.84,1.41.41.3-1.36-1.24-.45-.33.19.19.37.39.57.57.29.28.62,1.12-.59-.78.12.19.26.37.39.55.27.4.53.8.76,1.22.09.16.55,1.16.13.2s.02.16.07.32c-.01-.04.21.76.18.78l-.1-.75c.03.3.03.6.03.9.09.87-.39-.06.1-.36-.12.07-.18.87-.24,1.08-.2.7-.99,1.97.01.16-.27.48-.52.98-.79,1.47-.46.84.16-.31.31-.36-.2.07-.61.71-.75.87-.47.52-.94,1.03-1.43,1.53-.42.44-.85.88-1.3,1.29l-.27.24c-.48.4-.37.32.35-.24-.02,0-.68.47-.63.44-.28.18-.57.35-.86.51-.56.3-1.18.26.27-.06-.59.13-1.19.4-1.78.57-.96.27-1.93.52-2.91.72-.31.06-.62.11-.92.17-.87.17,1.59-.14.16-.03-.65.05-1.3.11-1.95.11-.46,0-.93-.02-1.39-.06-.51-.04-2.6-.39-.5-.03-1.49-.26-3-.42-4.49-.7-1.01-.19-2.01-.41-3.01-.63-.14-.03-1.15-.17-1.19-.32l.69.28c-.24-.12-.48-.25-.72-.39-.23-.14-.46-.29-.69-.45-.23-.16-.45-.32-.67-.49.61.48.75.58.4.3-.55-.46-1.11-.9-1.6-1.42l-.28-.3c-.34-.41-.36-.42-.04-.02.3.39.3.38.02-.03-.13-.23-.25-.46-.36-.7.03-.04.49,1.44.15.3-.11-.38-.25-.76-.35-1.14-.15-.53-.29-1.06-.43-1.59-.36-1.29,0,1.76.07.65.08-1.4-.37,1.25-.1.44.08-.24.12-.5.19-.75.16-.51.67-1.07-.15.25.44-.71.78-1.48,1.23-2.19,1.7-2.65.63-6.74-2.15-8.21-2.98-1.57-6.4-.67-8.21,2.15-1.58,2.46-2.84,5.33-2.81,8.3.02,2.51,1.05,5.2,2.03,7.45,1.41,3.22,4.45,5.71,7.34,7.58,2.26,1.46,4.85,2,7.45,2.49,2.85.54,5.81,1.04,8.71,1.19,2.68.15,5.45-.3,8.04-.94,2.77-.68,5.51-1.59,7.8-3.32,2.63-1.98,5.01-4.42,6.9-7.13,3.71-5.33,3.52-12.58-.23-17.81-.6-.83-1.21-1.7-1.98-2.39-.53-.48-1.15-.92-1.7-1.34-.24-.19-1.28-.98-.3-.22s-.15-.13-.39-.33c-.45-.38-.89-.77-1.33-1.17-.91-.84-1.73-1.75-2.7-2.52-.12-.1-4.11-2.91-4.27-2.64.01-.02,1.21.95.28.19-.6-.5-1.24-.98-1.86-1.45-.54-.4-1.1-.8-1.68-1.14-.92-.54-1.92-.94-2.91-1.34-.37-.15-.75-.3-1.13-.44-.55-.2-.42-.48.7.3-.72-.5-1.6-.86-2.36-1.3-.38-.22-.76-.45-1.14-.68-.17-.11-.34-.22-.5-.33-.6-.41-.56-.83.17.16-.33-.45-.93-.79-1.32-1.2-.18-.18-.34-.37-.51-.56-.83-.9.56.97-.02-.04-.1-.18-.83-1.72-.96-1.73l.31.74c-.09-.24-.18-.49-.27-.73-.09-.26-.18-.53-.27-.79-.23-.7-.47-1.39-.68-2.1-.09-.31-.17-.63-.25-.95-.04-.19-.08-.38-.11-.57.11.86.14,1.06.09.61,0-.48-.07-.95-.06-1.43,0-.23.1-.62.04-.83-.15.99-.17,1.15-.05.48l.09-.39.11-.4c.21-.61.17-.54-.14.2.03-.36.46-.83.63-1.13.62-1.12-.68.67-.11.16.31-.28.6-.58.9-.87.37-.35.7-.25-.42.31.32-.16.62-.45.92-.65.47-.32.95-.62,1.46-.89.61-.32,1.24-.59,1.87-.86.27-.11.53-.23.8-.34-1.41.58.4-.16.66-.26,1.4-.55,2.82-.95,4.31-1.2l.4-.07c.54-.08.54-.08.02,0-.52.07-.51.07.03.02.28-.02.57-.03.85-.03.04,0,.78-.04.87.03-.85-.13-.93-.13-.24,0,.22.05.44.11.65.19,1.12.36-.15.19-.2-.11.02.09.78.45.94.53,1.08.57-1-.94-.13-.13.23.22.47.42.69.64.17.17.33.36.5.54.9.93-.73-1.11-.21-.29.21.33.44.65.65.99,1.61,2.69,5.47,3.92,8.21,2.15s3.88-5.33,2.15-8.21h0Z"/><path d="M225.2,10.64c.04,1.48-.03,2.95-.18,4.42-.12,1.2,0-.27.04-.29-.05.02-.1.62-.11.68-.03.15-.05.3-.08.45-.04.21-.08.41-.13.61-.33,1.36-.83,2.68-1.3,4-1.6,4.45-3.18,8.93-4.94,13.32-1.84,4.61-4.06,9.38-4.4,14.42-.13,1.92.09,3.89.08,5.82,0,1.77-.03,3.53-.16,5.3-.03.44-.09.88-.12,1.32-.05.68.12-.77.1-.72-.05.15-.05.33-.08.48-.12.61-.27,1.17-.48,1.76-.24.68-.48,1.38-.66,2.08-.15.62.06,1.51-.28,1.97-.04.33-.02.25.04-.24.09-.49.09-.56,0-.22-.18.44-.28.95-.43,1.4-.33,1-.67,2-.97,3.02-.14.47-.25.95-.36,1.43-.04.16-.09.34-.12.5-.14.76.18-.4.3-.57l1.4-1.08c.47-.7,1.08-1.09,1.84-1.16,1.58-.27,1.66.39,2.96,1.76,1.23,1.3,1.84,1.48,1.83,3.03,0,.05-.36,1.86-.11.96.28-1-.67,1.21-.23.49.15-.25.27-.52.43-.78.18-.29.36-.58.56-.86.07-.1.15-.2.22-.3.45-.66-.51.68-.51.66.01-.16.4-.47.5-.58,1.21-1.42,1.32,1.78-3.75,1.36l-5.18-2.97.02.03-.82-3.03c0,.18.28-2.1.14-1.26-.02.11-.09.21-.12.31-.17.61.71-1.54.31-.75-.09.18-.17.36-.26.54-.16.31-.34.61-.51.92-.06.12-.16.22-.22.33.32-.64,1.07-1.38,1.72-1.7l3.03-.82h-.06c1.01.27,2.02.55,3.03.82h-.02c.72.7,1.44,1.42,2.15,2.14.91,1.32.85,3.09.62,3.99.09-.34.14-.7.22-1.05.27-1.17.57-2.34.86-3.5.75-3.01,1.44-6.03,2.11-9.07.12-.56.24-1.13.41-1.69.06-.2.15-.4.22-.61.2-.65-.73,1.65-.42.99.11-.24.21-.48.32-.72.52-1.14,1.08-2.26,1.77-3.3.13-.2.81-1.11.18-.3s.08-.07.25-.25c.21-.23.49-.43.68-.67.33-.42-.56.43-.6.44.17-.06.36-.25.52-.34.13-.08.29-.13.41-.22.42-.32-.66.31-.72.3.19.03.72-.35.89-.23.11.08-1.52.11-.91.13.13,0,.28-.02.41-.03.34-.02.69-.03,1.03-.06,1.95-.16,3.68-.58,5.52-1.19.75-.25,1.51-.44,2.28-.59.18-.03.37-.05.54-.1-.07.02-1.23.06-.57.1.21.01.47,0,.68-.02.77-.07-.25-.02-.51-.11.37.13.83.16,1.22.25.27.06,1.07.42,1.31.33,0,0-1.2-.61-.74-.32.52.33-.7-.59-.62-.52.17.17.45.55-.08-.17-.7-.96-.13-.05-.04,0,.11.07.12.31.21.41-.04-.05-.38-1.22-.32-.7.03.29.17.63.24.91.04.15.03.32.09.46.01.03-.1-1.41-.12-.84-.02.37.03.77.04,1.14.02.87.06,1.73.03,2.6,0,.22-.04.44-.04.65-.01.69.03-.51.07-.53-.13.07-.36,1.22-.44,1.42-.33.88-.69,1.73-.95,2.63-.12.42-.25.85-.35,1.27-.05.2-.36.75,0,.1.41-.73-.07.14-.15.29-.94,1.99-2.08,4.03-2.65,6.15-.77,2.83-.64,6.44.9,8.96s3.39,4.37,6.28,5.26,6.35.48,8.93-.89c2.37-1.25,3.96-3.64,4.72-6.16.91-3-1.09-6.67-4.19-7.38s-6.4.98-7.38,4.19c-.32,1.05.42-.9.23-.49-.52,1.11.78-.75.08-.07,0,0,1.26-1.05,1.45-.89-.02-.02-.76.16-.73.16-.17.03-.33.06-.5.09-.55.09,1.11-.25,1.22.03.03.08-1.69-.67-.56-.11.56.28.92.59,1.34,1.05.56.63.22.28.09.07-.19-.3-.53-1.02-.8-1.23.12.09.37,2.5.51,1.77.07-.34.02-.72.03-1.07,0-.18.08-.73.03-.85.09.2-.33,1.04-.01.55.15-.23.21-.57.31-.84.25-.66-.16.41-.17.4-.17-.18,1.37-2.93,1.52-3.25.6-1.3,1.02-2.56,1.41-3.93.32-1.11.82-2.14,1.17-3.23.75-2.35.69-4.98.58-7.42s-.59-4.84-1.84-6.87c-3.11-5.07-9.79-5.91-15.15-4.73-.81.18-1.58.41-2.36.69-.39.14-.78.28-1.18.39-.26.07-.55.11-.8.2-.71.23,1.51-.1.38-.04-2.4.13-4.59.39-6.78,1.46-3.48,1.71-5.89,5.26-7.49,8.68-.85,1.83-1.54,3.57-1.96,5.53-.78,3.58-1.64,7.15-2.52,10.71-.23.92-.47,1.85-.63,2.79-.22,1.29-.37,2.31-.02,3.59.64,2.34,2.67,4.05,5.04,4.37,3.17.43,5.54-1.53,6.97-4.15.91-1.65,1.71-3.4,1.79-5.3.13-3.18-2.84-6.19-6.02-6.06-1.73.07-3.24.71-4.49,1.91-1.07,1.02-1.97,2.29-2.75,3.54-1.05,1.69-1.88,3.66-1.85,5.69.05,4.3,3.79,6.95,7.82,7.05s6.65-2.7,7.51-6.3c.48-2.02,1.3-3.95,1.78-5.97.2-.83.27-1.69.36-2.54-.02.23-.34,1.44.04.43.07-.18.12-.37.17-.55.19-.6.44-1.2.61-1.81.56-2.1.69-4.38.78-6.55.13-3.06-.01-6.11-.02-9.17,0-.21.03-.42.03-.63.03,1.8-.23,1.56-.06.65.23-1.2.56-2.38.92-3.55,1.48-4.84,3.61-9.52,5.37-14.27,1.84-5,3.89-9.78,4.58-15.07.23-1.75.33-3.51.28-5.28-.09-3.13-2.7-6.15-6-6s-6.09,2.64-6,6h0Z"/><path d="M166.99,36.86c-4.29,1.29-8.83,2.28-12.8,4.35-.69.36-1.4.71-2.11,1.03-.37.16-1.24.38.2-.08-.25.08-.49.2-.73.29-1.92.78-3.47,1.63-4.98,3.11-1.8,1.77-3.6,3.69-5.25,5.61-2.02,2.34-4.44,4.91-5.5,7.88-.8,2.24.39,4.95,2.15,6.31s4.7,1.83,6.66.47c1.57-1.1,2.65-2.64,3.83-4.13,1.92-2.44,4.6-5.15,3.52-8.61-.59-1.91-2.13-3.77-4.19-4.19-4.16-.84-6.13,1.62-8.24,4.52-1.17,1.61-2.28,3.27-3.3,4.97s-2.09,3.5-2.49,5.39c-.03.14-.26.88-.21.95-.14-.21.66-1.4.09-.33-.42.79-.82,1.63-1.08,2.48-.22.73-.33,1.52-.32,2.27,0,.33.27,1.68.04,1.86l.11-.72c-.1.68-.19,1.36-.28,2.04-.04.39-.08.74-.08,1.13.03,1.45.41,2.92,1.11,4.18,1.06,1.89,2.78,3.29,4.71,4.22,1.66.79,3.43,1.71,5.23,2.1,2.93.64,5.32-.03,7.72-1.71,2.81-1.97,5.46-4.21,7.72-6.81,1.26-1.45,2.43-3,3.4-4.65l.19-.32c.34-.53.26-.43-.24.28,0-.01.78-.76.84-.82.85-.91,1.52-1.98,2.16-3.04,1.12-1.88,1.94-3.87,2.53-5.98.09-.33.53-2.67.82-2.74l-.3.69c.27-.61.54-1.23.79-1.85.18-.43.36-.85.52-1.29.37-.97.68-1.95.99-2.94.13-.41.25-.82.38-1.22.09-.27.18-.54.29-.8-.32.72-.38.88-.19.48.39-.64.69-1.33,1.1-1.97.22-.35.48-.87.79-1.14-.52.66-.58.75-.19.27.15-.17.3-.35.45-.52l-10.03-5.84c-.73,3.23-2.36,6.26-2.9,9.51-.71,4.26-1.07,8.56-1.09,12.88,0,.91-.04,1.83.04,2.73.15,1.67.64,2.96,1.32,4.48s1.43,2.84,2.36,4.13c1.62,2.26,3.55,3.87,6.3,4.51,3.1.72,5.77-.21,8.15-2.2s2.24-6.43,0-8.49c-2.57-2.36-5.9-2.15-8.49,0,.96-.7,1.23-.91.8-.63-.38.23-.12.13.78-.29.25-.06,1.91.09,1.94.04-.18-.05-.37-.1-.55-.15-.51-.14-.29-.03.66.33-.87-.46.86.74.35.25s.75,1.16.21.3c-.15-.23-.3-.46-.45-.7-.35-.55-.7-1.11-1.01-1.68-.13-.24-.25-.49-.37-.73-.16-.34-.57-1.59-.04-.04-.36-1.05-.06,1.04-.01.31.02-.35,0-.72,0-1.07,0-1.6-.01-3.2.07-4.79s.24-3.14.43-4.7c.05-.38.1-.76.14-1.15.18-1.5-.27,1.34.02-.15.14-.73.29-1.43.52-2.13.83-2.46,1.8-4.84,2.38-7.38s-.35-5.5-2.76-6.78c-2.27-1.2-5.45-1.09-7.27.94-2.33,2.6-4.12,5.47-5.26,8.77-.45,1.3-.81,2.63-1.28,3.93-.16.43-.31.88-.5,1.3.06-.14.49-1.13.08-.22-.5,1.11-.91,2.2-1.25,3.36-.19.66-.36,1.32-.55,1.98-.08.26-.16.52-.24.78l-.13.38c-.19.49-.19.5,0,.03l.14-.35c-.12.24-.25.47-.39.7-.15.26-.31.52-.46.77-.13.21-.48,1.07-.71,1.16l.43-.55c-.18.19-.37.37-.56.55-1.22,1.24-1.98,2.7-2.95,4.11-.06.09-.51.7-.51.7-.07-.07.78-.95-.02-.01-.51.59-1.05,1.14-1.61,1.69-.94.94-1.92,1.8-2.9,2.69.04-.04-.55.51-.54.52l.64-.46c-.23.14-.45.28-.69.41-.24.16-.45.33-.68.49-.23.18-.46.35-.69.52.38-.22.79-.33,1.23-.36.34-.04,1.97.33.97,0,.05.02-.67-.23-.68-.22l.71.3c-.27-.12-.54-.23-.82-.35-.27-.12-.55-.23-.82-.36-.6-.27-1.16-.67-1.76-.94l.72.55c-.31-.33-.29-.28.08.16.33.47.38.51.15.13.37.57.54,1.2.52,1.88.03-.06.02-.68.02-.68l-.09.7c.06-.41.11-.82.17-1.23.12-.89.17-1.72.14-2.61,0-.15.02-.35-.03-.49-.13-.44-.19,1.22-.19,1.23.12-.57.39-.43-.31.56.16-.22.27-.5.4-.74.6-1.15,1.03-2.32,1.27-3.59.02-.1.07-.18.09-.28.18-.79-.69,1.46-.38.87.18-.34.33-.69.51-1.03.94-1.78,2.05-3.48,3.19-5.14.48-.7.97-1.38,1.47-2.06.72-.99-1.21,1.2-.26.34,1.16-1.05-1.08.67-2.25,1.14h-3.19.02c-1.4-1.39-2.79-2.79-4.19-4.19v.02c0-1.06,0-2.13,0-3.19,0-.02.95-1.74.38-1.02-.19.23-.35.49-.52.73-.1.14-.21.27-.31.41-.57.76.84-1.08.45-.59-.28.35-.55.7-.83,1.05-.47.59-.94,1.17-1.41,1.75-.63.77-1.69,1.48.39.03l8.81,6.78c-.78,2.18-.69,1.53-.24.86.28-.42.57-.83.87-1.23.19-.26.46-.53.61-.82l-.47.61c.17-.21.34-.43.51-.64.52-.65,1.06-1.28,1.61-1.91,1.53-1.72,3.15-3.46,4.79-5.07.46-.45.99-.44-.35.19.25-.12.49-.32.72-.46s.92-.42-.16.03c-1.16.49-.19.09.06-.02,1.6-.65,3.2-1.33,4.74-2.12.27-.14.83-.6,1.15-.61-.64.25-.74.3-.31.16.24-.07.48-.14.71-.21.95-.29,1.9-.57,2.86-.86,1.9-.57,3.81-1.14,5.71-1.71,3-.9,5.2-4.25,4.19-7.38s-4.16-5.16-7.38-4.19h0Z"/></svg>